<svg xmlns="http://www.w3.org/2000/svg" width="400" height="300" viewBox="0 0 400 300">
  <rect width="100%" height="100%" fill="#e0e0e0"/>
  <text x="50%" y="30%" font-family="Arial" font-size="18" fill="#999" text-anchor="middle" dominant-baseline="middle">AR演示</text>
  <g transform="translate(200, 170)">
    <rect x="-70" y="-80" width="140" height="80" rx="10" ry="10" fill="#ccc"/>
    <rect x="-60" y="-70" width="120" height="60" rx="5" ry="5" fill="#e0e0e0"/>
    <g transform="translate(0, 40)">
      <rect x="-20" y="-10" width="40" height="20" rx="5" ry="5" fill="#c41230"/>
      <circle cx="-30" cy="0" r="5" fill="#1e5b94"/>
    </g>
    <g transform="translate(0, -40)">
      <path d="M-30,-10 L30,-10 L0,20 Z" fill="#999"/>
      <circle cx="-10" cy="-20" r="5" fill="#1e5b94"/>
    </g>
  </g>
  <g transform="translate(320, 150)">
    <rect x="-30" y="-50" width="60" height="100" rx="5" ry="5" fill="#999"/>
    <rect x="-25" y="-45" width="50" height="70" rx="2" ry="2" fill="#e0e0e0"/>
    <circle cx="0" cy="40" r="8" fill="#ccc"/>
  </g>
  <path d="M230,170 L290,150" stroke="#999" stroke-width="2" stroke-dasharray="5,5"/>
</svg>